<?xml version="1.0" encoding="utf-8"?>
<!-- Generator: Adobe Illustrator 21.0.0, SVG Export Plug-In . SVG Version: 6.00 Build 0)  -->
<svg version="1.1" xmlns="http://www.w3.org/2000/svg" xmlns:xlink="http://www.w3.org/1999/xlink" x="0px" y="0px" width="64px"
	 height="64px" viewBox="0 0 64 64" style="enable-background:new 0 0 64 64;" xml:space="preserve">
<style type="text/css">
	.st0{fill:#CCCCCC;}
	.st1{fill:#FFFFFF;}
	.st2{fill:#E6E6E6;}
	.st3{fill:#808080;}
	.st4{fill:none;stroke:#CCCCCC;stroke-miterlimit:10;}
	.st5{fill:#B3B3B3;}
	.st6{display:none;}
</style>
<g id="icon_frame">
	<path class="st0" d="M61,64H3c-1.6,0-3-1.3-3-3V3c0-1.6,1.4-3,3-3h58c1.7,0,3,1.4,3,3v58C64,62.7,62.7,64,61,64z"/>
	<path class="st1" d="M58,60H6c-1.1,0-2-0.9-2-2V12c0-1.1,0.9-2,2-2h52c1.1,0,2,0.9,2,2v46C60,59.1,59.1,60,58,60z"/>
	<circle class="st1" cx="7" cy="4.9" r="2"/>
	<circle class="st1" cx="13.7" cy="4.9" r="2"/>
	<circle class="st1" cx="20.3" cy="4.9" r="2"/>
</g>
<g id="ref">
	<path class="st3" d="M58,60H6c-1.1,0-2-0.9-2-2V32h56v26C60,59.1,59.1,60,58,60z"/>
	<rect x="14" y="38" class="st1" width="36" height="2"/>
	<rect x="16" y="42" class="st1" width="32" height="2"/>
	<rect x="27" y="48" class="st2" width="11" height="6"/>
	<rect x="29" y="50" class="st3" width="7" height="2"/>
	<g>
		<path class="st3" d="M35.3,21.2c0.1,0.1,0.1,0.2,0.1,0.4c-0.1,0.1-0.2,0.2-0.3,0.2h-2.1l1.1,2.7c0,0.1,0,0.2,0,0.3
			c0,0.1-0.1,0.2-0.2,0.2l-1,0.4c-0.1,0-0.2,0-0.3,0s-0.2-0.1-0.2-0.2l-1.1-2.5l-1.7,1.7c-0.1,0.1-0.2,0.1-0.3,0.1c0,0-0.1,0-0.1,0
			c-0.1-0.1-0.2-0.2-0.2-0.3v-8.4c0-0.2,0.1-0.3,0.2-0.3c0,0,0.1,0,0.1,0c0.1,0,0.2,0,0.3,0.1L35.3,21.2z"/>
	</g>
</g>
<g id="guides" class="st6">
</g>
</svg>
