<?xml version="1.0" encoding="utf-8"?>
<!-- Generator: Adobe Illustrator 21.0.0, SVG Export Plug-In . SVG Version: 6.00 Build 0)  -->
<svg version="1.1" xmlns="http://www.w3.org/2000/svg" xmlns:xlink="http://www.w3.org/1999/xlink" x="0px" y="0px" width="64px"
	 height="64px" viewBox="0 0 64 64" style="enable-background:new 0 0 64 64;" xml:space="preserve">
<style type="text/css">
	.st0{fill:#CCCCCC;}
	.st1{fill:#FFFFFF;}
	.st2{fill:#E6E6E6;}
	.st3{fill:#808080;}
	.st4{fill:none;stroke:#CCCCCC;stroke-miterlimit:10;}
	.st5{fill:#B3B3B3;}
	.st6{display:none;}
</style>
<g id="icon_frame">
	<path class="st0" d="M61,64H3c-1.6,0-3-1.3-3-3V3c0-1.6,1.4-3,3-3h58c1.7,0,3,1.4,3,3v58C64,62.7,62.7,64,61,64z"/>
	<path class="st1" d="M58,60H6c-1.1,0-2-0.9-2-2V12c0-1.1,0.9-2,2-2h52c1.1,0,2,0.9,2,2v46C60,59.1,59.1,60,58,60z"/>
	<circle class="st1" cx="7" cy="4.9" r="2"/>
	<circle class="st1" cx="13.7" cy="4.9" r="2"/>
	<circle class="st1" cx="20.3" cy="4.9" r="2"/>
</g>
<g id="ref">
	<path class="st2" d="M47.7,52H16.3C14,52,12,50,12,47.7V22.3c0-2.4,2-4.3,4.3-4.3h31.3c2.4,0,4.3,2,4.3,4.3v25.3
		C52,50,50,52,47.7,52z"/>
	<path class="st3" d="M39.9,29.7v11.4c0,0.3-0.1,0.6-0.3,0.8c-0.2,0.2-0.5,0.3-0.8,0.3H26.1c-0.3,0-0.6-0.1-0.8-0.3
		c-0.2-0.2-0.3-0.5-0.3-0.8V29.7c0-0.3,0.1-0.6,0.3-0.8c0.2-0.2,0.5-0.3,0.8-0.3h1.1v-0.9c0-0.4,0.1-0.7,0.4-1
		c0.3-0.3,0.6-0.4,1-0.4h0.6c0.4,0,0.7,0.1,1,0.4c0.3,0.3,0.4,0.6,0.4,1v0.9h3.4v-0.9c0-0.4,0.1-0.7,0.4-1c0.3-0.3,0.6-0.4,1-0.4
		h0.6c0.4,0,0.7,0.1,1,0.4c0.3,0.3,0.4,0.6,0.4,1v0.9h1.1c0.3,0,0.6,0.1,0.8,0.3C39.7,29.1,39.9,29.4,39.9,29.7z M26.1,34.6h2.6V32
		h-2.6V34.6z M26.1,38h2.6v-2.9h-2.6V38z M26.1,41.1h2.6v-2.6h-2.6V41.1z M29.6,30.3v-2.6c0-0.1,0-0.1-0.1-0.2
		c-0.1-0.1-0.1-0.1-0.2-0.1h-0.6c-0.1,0-0.1,0-0.2,0.1s-0.1,0.1-0.1,0.2v2.6c0,0.1,0,0.1,0.1,0.2s0.1,0.1,0.2,0.1h0.6
		c0.1,0,0.1,0,0.2-0.1C29.5,30.4,29.6,30.4,29.6,30.3z M29.3,34.6h2.9V32h-2.9V34.6z M29.3,38h2.9v-2.9h-2.9V38z M29.3,41.1h2.9
		v-2.6h-2.9V41.1z M32.7,34.6h2.9V32h-2.9V34.6z M32.7,38h2.9v-2.9h-2.9V38z M32.7,41.1h2.9v-2.6h-2.9V41.1z M36.4,30.3v-2.6
		c0-0.1,0-0.1-0.1-0.2s-0.1-0.1-0.2-0.1h-0.6c-0.1,0-0.1,0-0.2,0.1s-0.1,0.1-0.1,0.2v2.6c0,0.1,0,0.1,0.1,0.2s0.1,0.1,0.2,0.1h0.6
		c0.1,0,0.1,0,0.2-0.1S36.4,30.4,36.4,30.3z M36.1,34.6h2.6V32h-2.6V34.6z M36.1,38h2.6v-2.9h-2.6V38z M36.1,41.1h2.6v-2.6h-2.6
		V41.1z"/>
</g>
<g id="guides" class="st6">
</g>
</svg>
