<?xml version="1.0" encoding="utf-8"?>
<!-- Generator: Adobe Illustrator 21.0.0, SVG Export Plug-In . SVG Version: 6.00 Build 0)  -->
<svg version="1.1" xmlns="http://www.w3.org/2000/svg" xmlns:xlink="http://www.w3.org/1999/xlink" x="0px" y="0px" width="64px"
	 height="64px" viewBox="0 0 64 64" style="enable-background:new 0 0 64 64;" xml:space="preserve">
<style type="text/css">
	.st0{fill:#CCCCCC;}
	.st1{fill:#FFFFFF;}
	.st2{fill:#E6E6E6;}
	.st3{fill:#808080;}
	.st4{fill:none;stroke:#CCCCCC;stroke-miterlimit:10;}
	.st5{fill:#B3B3B3;}
	.st6{display:none;}
</style>
<g id="icon_frame">
	<path class="st0" d="M61,64H3c-1.6,0-3-1.3-3-3V3c0-1.6,1.4-3,3-3h58c1.7,0,3,1.4,3,3v58C64,62.7,62.7,64,61,64z"/>
	<path class="st1" d="M58,60H6c-1.1,0-2-0.9-2-2V12c0-1.1,0.9-2,2-2h52c1.1,0,2,0.9,2,2v46C60,59.1,59.1,60,58,60z"/>
	<circle class="st1" cx="7" cy="4.9" r="2"/>
	<circle class="st1" cx="13.7" cy="4.9" r="2"/>
	<circle class="st1" cx="20.3" cy="4.9" r="2"/>
</g>
<g id="ref">
	<rect x="4" y="18" class="st2" width="56" height="6"/>
	<rect x="14" y="20.1" class="st3" width="6" height="1.7"/>
	<rect x="24" y="20.1" class="st3" width="6" height="1.7"/>
	<rect x="34" y="20.1" class="st3" width="6" height="1.7"/>
	<rect x="44" y="20.1" class="st3" width="6" height="1.7"/>
	<path class="st3" d="M40,36.6c0.8,1.3,1.1,2.7,1.1,4.3c0,1.6-0.4,3-1.1,4.3c-0.8,1.3-1.8,2.4-3.1,3.1c-1.3,0.8-2.7,1.1-4.3,1.1
		s-3-0.4-4.3-1.1c-1.3-0.8-2.4-1.8-3.1-3.1c-0.8-1.3-1.1-2.7-1.1-4.3c0-1.6,0.4-3,1.1-4.3s1.8-2.4,3.1-3.1c1.3-0.8,2.7-1.1,4.3-1.1
		s3,0.4,4.3,1.1S39.2,35.2,40,36.6z M37.8,43.9c0.5-0.9,0.8-1.9,0.8-3c0-1.1-0.3-2.1-0.8-3c-0.5-0.9-1.3-1.7-2.2-2.2s-1.9-0.8-3-0.8
		s-2.1,0.3-3,0.8s-1.7,1.3-2.2,2.2c-0.5,0.9-0.8,1.9-0.8,3c0,1.1,0.3,2.1,0.8,3c0.5,0.9,1.3,1.7,2.2,2.2c0.9,0.5,1.9,0.8,3,0.8
		s2.1-0.3,3-0.8C36.5,45.6,37.3,44.8,37.8,43.9z M35.4,36.4v6l-5.7,2.9v-6L35.4,36.4z M31.1,43l2.9-1.4l-2.9-1.4V43z"/>
</g>
<g id="guides" class="st6">
</g>
</svg>
