<?xml version="1.0" encoding="utf-8"?>
<!-- Generator: Adobe Illustrator 21.0.0, SVG Export Plug-In . SVG Version: 6.00 Build 0)  -->
<svg version="1.1" xmlns="http://www.w3.org/2000/svg" xmlns:xlink="http://www.w3.org/1999/xlink" x="0px" y="0px" width="64px"
	 height="64px" viewBox="0 0 64 64" style="enable-background:new 0 0 64 64;" xml:space="preserve">
<style type="text/css">
	.st0{fill:#CCCCCC;}
	.st1{fill:#FFFFFF;}
	.st2{fill:#E6E6E6;}
	.st3{fill:#808080;}
	.st4{fill:none;stroke:#CCCCCC;stroke-miterlimit:10;}
	.st5{fill:#B3B3B3;}
	.st6{display:none;}
</style>
<g id="icon_frame">
	<path class="st0" d="M61,64H3c-1.6,0-3-1.3-3-3V3c0-1.6,1.4-3,3-3h58c1.7,0,3,1.4,3,3v58C64,62.7,62.7,64,61,64z"/>
	<path class="st1" d="M58,60H6c-1.1,0-2-0.9-2-2V12c0-1.1,0.9-2,2-2h52c1.1,0,2,0.9,2,2v46C60,59.1,59.1,60,58,60z"/>
	<circle class="st1" cx="7" cy="4.9" r="2"/>
	<circle class="st1" cx="13.7" cy="4.9" r="2"/>
	<circle class="st1" cx="20.3" cy="4.9" r="2"/>
</g>
<g id="ref">
	<g>
		<path class="st3" d="M31.2,21.2c-0.7,0.2-1.3,0.5-1.7,0.8c-0.4,0.4-0.6,0.8-0.5,1.3c0.2,0.3,0.5,0.5,0.9,0.7
			c0.4,0.2,0.8,0.3,1.2,0.5c0.1,0.3,0.1,0.7,0,1c-0.1,0.3-0.2,0.7-0.4,1s-0.4,0.5-0.7,0.7c-0.3,0.2-0.5,0.3-0.8,0.4
			c-0.4,0-0.8-0.1-1.1-0.2c-0.4-0.1-0.7-0.3-1-0.6c-0.3-0.3-0.5-0.6-0.7-0.9c-0.2-0.4-0.3-0.8-0.3-1.2c0-0.6,0.1-1.1,0.3-1.6
			c0.2-0.5,0.5-1,0.9-1.4s0.9-0.8,1.4-1.1c0.6-0.3,1.2-0.5,1.8-0.6L31.2,21.2z M36.9,21.2c-0.7,0.2-1.3,0.5-1.7,0.8
			s-0.6,0.8-0.5,1.3c0.2,0.3,0.5,0.5,0.9,0.7c0.4,0.2,0.8,0.3,1.2,0.5c0.1,0.3,0.1,0.7,0,1c-0.1,0.3-0.2,0.7-0.4,1
			c-0.2,0.3-0.4,0.5-0.7,0.7c-0.3,0.2-0.5,0.3-0.8,0.4c-0.4,0-0.8-0.1-1.1-0.2c-0.4-0.1-0.7-0.3-1-0.6c-0.3-0.3-0.5-0.6-0.7-0.9
			C32.1,25.5,32,25,32,24.6c0-0.6,0.1-1.1,0.3-1.6c0.2-0.5,0.5-1,0.9-1.4c0.4-0.4,0.9-0.8,1.4-1.1c0.6-0.3,1.2-0.5,1.8-0.6
			L36.9,21.2z"/>
	</g>
	<rect x="27" y="45" class="st0" width="10" height="2"/>
	<rect x="18" y="33" class="st3" width="28" height="2"/>
	<rect x="20" y="39" class="st3" width="24" height="2"/>
	<polygon class="st0" points="11.6,38.4 7.3,34 11.6,29.6 12.4,30.4 8.7,34 12.4,37.6 	"/>
	<polygon class="st0" points="52.4,38.4 51.6,37.6 55.3,34 51.6,30.4 52.4,29.6 56.7,34 	"/>
</g>
<g id="guides" class="st6">
</g>
</svg>
