<?xml version="1.0" encoding="UTF-8"?>
<svg width="134px" height="134px" viewBox="0 0 134 134" version="1.1" xmlns="http://www.w3.org/2000/svg" xmlns:xlink="http://www.w3.org/1999/xlink">
    <!-- Generator: Sketch 47.1 (45422) - http://www.bohemiancoding.com/sketch -->
    <title>ic_faqs</title>
    <desc>Created with Sketch.</desc>
    <defs></defs>
    <g id="Page-1" stroke="none" stroke-width="1" fill="none" fill-rule="evenodd">
        <g id="Artboard" transform="translate(-658.000000, -267.000000)">
            <g id="ic_faqs" transform="translate(658.000000, 267.000000)">
                <rect id="Rectangle-Copy" fill="#D8D8D8" x="0" y="0" width="134" height="134" rx="4"></rect>
                <g id="Group-Copy" transform="translate(8.375000, 6.281250)" fill="#FFFFFF">
                    <circle id="Oval" cx="4.1875" cy="4.1875" r="4.1875"></circle>
                    <circle id="Oval-Copy" cx="16.75" cy="4.1875" r="4.1875"></circle>
                    <circle id="Oval-Copy-2" cx="31.40625" cy="4.1875" r="4.1875"></circle>
                </g>
                <rect id="Rectangle-2-Copy" fill="#FFFFFF" x="8.375" y="20.9375" width="117.25" height="104.6875" rx="2"></rect>
                <rect id="Rectangle-3-Copy" fill="#E6E6E6" x="27.21875" y="37.6875" width="81.65625" height="71.1875" rx="4"></rect>
                <g id="noun_547021" transform="translate(46.062500, 52.343750)" fill-rule="nonzero" fill="#808080">
                    <path d="M28.265625,10.46875 C18.4103663,10.46875 10.46875,17.5014379 10.46875,26.171875 C10.46875,34.8423121 18.4103663,41.875 28.265625,41.875 C31.8058636,41.875 35.1547379,40.9597872 37.9295195,39.3702071 C40.4172547,40.863449 43.1441952,40.8152799 44.7229503,40.6226035 C45.1535198,40.5744344 45.297043,39.9964053 44.9143145,39.7073907 C43.3834005,38.6958397 42.5701025,37.298936 42.0916919,36.0465395 C44.5794271,33.3490702 46.0625,29.9290644 46.0625,26.171875 C46.0625,17.5014379 38.0730427,10.46875 28.265625,10.46875 Z M29.3125,32.9184028 C29.3125,33.228588 28.875,33.5 28.375,33.5 L26.0625,33.5 C25.5625,33.5 25.125,33.228588 25.125,32.9184028 L25.125,31.9878472 C25.125,31.677662 25.5625,31.40625 26.0625,31.40625 L28.375,31.40625 C28.875,31.40625 29.3125,31.677662 29.3125,31.9878472 L29.3125,32.9184028 Z M32.65459,25.4921505 C32.1262087,26.1867595 31.4921512,26.7325237 30.6467411,27.1294431 C30.2240361,27.4271327 29.9070073,27.7248223 29.7484929,28.0225118 C29.6428167,28.2705865 29.5899786,28.5186611 29.5371404,28.8659656 C29.5371404,29.1140403 29.2729498,29.3125 29.0087592,29.3125 L26.5782053,29.3125 C26.2611765,29.3125 25.9969859,29.0644254 26.049824,28.7667358 C26.1026622,28.1217417 26.2611765,27.6255924 26.5253672,27.2782879 C26.8423959,26.8317536 27.4764535,26.2859893 28.4275398,25.6906102 C28.9030829,25.3929206 29.2729498,25.095231 29.5371404,24.6486967 C29.8013311,24.2517773 29.9598455,23.755628 29.9598455,23.2594787 C29.9598455,22.7137145 29.8013311,22.2671801 29.4843023,21.9198756 C29.1672735,21.5725711 28.7445685,21.4237263 28.1633491,21.4237263 C27.687806,21.4237263 27.3179391,21.5725711 27.0009103,21.8206457 C26.7895578,21.9694905 26.6838816,22.2175652 26.5782053,22.4656398 C26.472529,22.8129443 26.1555003,23.011404 25.7856334,23.011404 L23.5135939,22.9617891 C23.2494033,22.9617891 22.9852126,22.7137145 23.0380508,22.4656398 C23.143727,21.3244964 23.566432,20.4810427 24.4118421,19.8856635 C25.3629284,19.1910545 26.6310434,18.84375 28.1633491,18.84375 C29.8541692,18.84375 31.1222843,19.2406694 32.0733706,20.0345083 C33.0244569,20.8283472 33.5,21.8702607 33.5,23.2098637 C33.4471619,24.0533175 33.1829712,24.8471564 32.65459,25.4921505 Z M3.21891304,21.2463498 C1.18342391,19.0200808 0,16.1646488 0,13.0672311 C0,5.8560554 6.5325,0 14.5324457,0 C19.9761957,0 24.7572283,2.71024052 27.21875,6.67880698 C27.21875,6.67880698 27.21875,6.67880698 27.21875,6.67880698 C16.4259239,6.67880698 7.52657609,14.325557 6.62717391,24.0049874 C6.62717391,24.0049874 6.62717391,24.0049874 6.62717391,24.0049874 C4.59168478,25.2633134 2.36684783,25.2149162 1.08875,25.0213276 C0.710054348,24.9729305 0.615380435,24.4889589 0.94673913,24.2953703 C2.13016304,23.4242216 2.84021739,22.2626899 3.21891304,21.2463498 Z" id="Shape"></path>
                </g>
            </g>
        </g>
    </g>
</svg>