<?xml version="1.0" encoding="utf-8"?>
<!-- Generator: Adobe Illustrator 21.0.0, SVG Export Plug-In . SVG Version: 6.00 Build 0)  -->
<svg version="1.1" xmlns="http://www.w3.org/2000/svg" xmlns:xlink="http://www.w3.org/1999/xlink" x="0px" y="0px" width="64px"
	 height="64px" viewBox="0 0 64 64" style="enable-background:new 0 0 64 64;" xml:space="preserve">
<style type="text/css">
	.st0{fill:#CCCCCC;}
	.st1{fill:#FFFFFF;}
	.st2{fill:#E6E6E6;}
	.st3{fill:#808080;}
	.st4{fill:none;stroke:#CCCCCC;stroke-miterlimit:10;}
	.st5{fill:#B3B3B3;}
	.st6{display:none;}
</style>
<g id="icon_frame">
	<path class="st0" d="M61,64H3c-1.6,0-3-1.3-3-3V3c0-1.6,1.4-3,3-3h58c1.7,0,3,1.4,3,3v58C64,62.7,62.7,64,61,64z"/>
	<path class="st1" d="M58,60H6c-1.1,0-2-0.9-2-2V12c0-1.1,0.9-2,2-2h52c1.1,0,2,0.9,2,2v46C60,59.1,59.1,60,58,60z"/>
	<circle class="st1" cx="7" cy="4.9" r="2"/>
	<circle class="st1" cx="13.7" cy="4.9" r="2"/>
	<circle class="st1" cx="20.3" cy="4.9" r="2"/>
</g>
<g id="ref">
	<rect x="9" y="21" class="st3" width="14" height="12"/>
	<circle class="st0" cx="20" cy="24" r="1"/>
	<polygon class="st0" points="16,25 12,31 20,31 	"/>
	<rect x="9" y="33" transform="matrix(-1 -1.885253e-10 1.885253e-10 -1 32 82)" class="st2" width="14" height="16"/>
	<rect x="11" y="35" class="st3" width="10" height="2"/>
	<rect x="11" y="39" class="st3" width="8" height="2"/>
	<rect x="25" y="21" class="st3" width="14" height="12"/>
	<circle class="st0" cx="36" cy="24" r="1"/>
	<polygon class="st0" points="32,25 28,31 36,31 	"/>
	<rect x="25" y="33" transform="matrix(-1 -1.885253e-10 1.885253e-10 -1 64 82)" class="st2" width="14" height="16"/>
	<rect x="27" y="35" class="st3" width="10" height="2"/>
	<rect x="27" y="39" class="st3" width="8" height="2"/>
	<rect x="41" y="21" class="st3" width="14" height="12"/>
	<circle class="st0" cx="52" cy="24" r="1"/>
	<polygon class="st0" points="48,25 44,31 52,31 	"/>
	<rect x="41" y="33" transform="matrix(-1 -1.885253e-10 1.885253e-10 -1 96 82)" class="st2" width="14" height="16"/>
	<rect x="43" y="35" class="st3" width="10" height="2"/>
	<rect x="43" y="39" class="st3" width="8" height="2"/>
	<g>
		<circle class="st2" cx="52" cy="19" r="6"/>
		<g>
			<path class="st3" d="M55,18.3c0,0.1,0,0.1-0.1,0.2l-1.3,1.3l0.3,1.9c0,0,0,0,0,0.1c0,0.1,0,0.1,0,0.1c0,0-0.1,0.1-0.1,0.1
				c0,0-0.1,0-0.1,0L52,21.1L50.4,22c-0.1,0-0.1,0-0.1,0c-0.1,0-0.1,0-0.1-0.1c0,0,0-0.1,0-0.1c0,0,0,0,0-0.1l0.3-1.9l-1.3-1.3
				C49,18.4,49,18.4,49,18.3c0-0.1,0.1-0.2,0.2-0.2l1.8-0.3l0.8-1.7c0-0.1,0.1-0.2,0.2-0.2c0.1,0,0.1,0.1,0.2,0.2l0.8,1.7l1.8,0.3
				C54.9,18.2,55,18.2,55,18.3z"/>
		</g>
	</g>
</g>
<g id="guides" class="st6">
</g>
</svg>
