<?xml version="1.0" encoding="utf-8"?>
<!-- Generator: Adobe Illustrator 21.0.0, SVG Export Plug-In . SVG Version: 6.00 Build 0)  -->
<svg version="1.1" xmlns="http://www.w3.org/2000/svg" xmlns:xlink="http://www.w3.org/1999/xlink" x="0px" y="0px" width="64px"
	 height="64px" viewBox="0 0 64 64" style="enable-background:new 0 0 64 64;" xml:space="preserve">
<style type="text/css">
	.st0{fill:#CCCCCC;}
	.st1{fill:#FFFFFF;}
	.st2{fill:#E6E6E6;}
	.st3{fill:#808080;}
	.st4{fill:none;stroke:#CCCCCC;stroke-miterlimit:10;}
	.st5{fill:#B3B3B3;}
	.st6{display:none;}
</style>
<g id="icon_frame">
	<path class="st0" d="M61,64H3c-1.6,0-3-1.3-3-3V3c0-1.6,1.4-3,3-3h58c1.7,0,3,1.4,3,3v58C64,62.7,62.7,64,61,64z"/>
	<path class="st1" d="M58,60H6c-1.1,0-2-0.9-2-2V12c0-1.1,0.9-2,2-2h52c1.1,0,2,0.9,2,2v46C60,59.1,59.1,60,58,60z"/>
	<circle class="st1" cx="7" cy="4.9" r="2"/>
	<circle class="st1" cx="13.7" cy="4.9" r="2"/>
	<circle class="st1" cx="20.3" cy="4.9" r="2"/>
</g>
<g id="ref">
	<rect x="26" y="37" class="st3" width="12" height="2"/>
	<rect x="26" y="43" class="st3" width="12" height="2"/>
	<rect x="26" y="49" class="st3" width="12" height="2"/>
	<path class="st3" d="M36.5,33h-8.9c-0.8,0-1.5-0.7-1.5-1.5V20.5c0-0.8,0.7-1.5,1.5-1.5h8.9c0.8,0,1.5,0.7,1.5,1.5v10.9
		C38,32.3,37.3,33,36.5,33z"/>
	<circle class="st0" cx="35" cy="22" r="1"/>
	<polygon class="st0" points="32,24 28,30 36,30 	"/>
	<rect x="40" y="37" class="st3" width="12" height="2"/>
	<rect x="40" y="43" class="st3" width="12" height="2"/>
	<rect x="40" y="49" class="st3" width="12" height="2"/>
	<path class="st3" d="M50.5,33h-8.9c-0.8,0-1.5-0.7-1.5-1.5V20.5c0-0.8,0.7-1.5,1.5-1.5h8.9c0.8,0,1.5,0.7,1.5,1.5v10.9
		C52,32.3,51.3,33,50.5,33z"/>
	<circle class="st0" cx="49" cy="22" r="1"/>
	<polygon class="st0" points="46,24 42,30 50,30 	"/>
	<rect x="12" y="37" class="st3" width="12" height="2"/>
	<rect x="12" y="43" class="st3" width="12" height="2"/>
	<rect x="12" y="49" class="st3" width="12" height="2"/>
	<path class="st3" d="M22.5,33h-8.9c-0.8,0-1.5-0.7-1.5-1.5V20.5c0-0.8,0.7-1.5,1.5-1.5h8.9c0.8,0,1.5,0.7,1.5,1.5v10.9
		C24,32.3,23.3,33,22.5,33z"/>
	<circle class="st0" cx="21" cy="22" r="1"/>
	<polygon class="st0" points="18,24 14,30 22,30 	"/>
</g>
<g id="guides" class="st6">
</g>
</svg>
