<?xml version="1.0" encoding="utf-8"?>
<!-- Generator: Adobe Illustrator 21.0.0, SVG Export Plug-In . SVG Version: 6.00 Build 0)  -->
<svg version="1.1" xmlns="http://www.w3.org/2000/svg" xmlns:xlink="http://www.w3.org/1999/xlink" x="0px" y="0px" width="64px"
	 height="64px" viewBox="0 0 64 64" style="enable-background:new 0 0 64 64;" xml:space="preserve">
<style type="text/css">
	.st0{fill:#CCCCCC;}
	.st1{fill:#FFFFFF;}
	.st2{fill:#E6E6E6;}
	.st3{fill:#808080;}
	.st4{fill:none;stroke:#CCCCCC;stroke-miterlimit:10;}
	.st5{fill:#B3B3B3;}
	.st6{display:none;}
</style>
<g id="icon_frame">
	<path class="st0" d="M61,64H3c-1.6,0-3-1.3-3-3V3c0-1.6,1.4-3,3-3h58c1.7,0,3,1.4,3,3v58C64,62.7,62.7,64,61,64z"/>
	<path class="st1" d="M58,60H6c-1.1,0-2-0.9-2-2V12c0-1.1,0.9-2,2-2h52c1.1,0,2,0.9,2,2v46C60,59.1,59.1,60,58,60z"/>
	<circle class="st1" cx="7" cy="4.9" r="2"/>
	<circle class="st1" cx="13.7" cy="4.9" r="2"/>
	<circle class="st1" cx="20.3" cy="4.9" r="2"/>
</g>
<g id="ref">
	<path class="st2" d="M47.7,52H16.3C14,52,12,50,12,47.7V22.3c0-2.4,2-4.3,4.3-4.3h31.3c2.4,0,4.3,2,4.3,4.3v25.3
		C52,50,50,52,47.7,52z"/>
	<path class="st3" d="M36.1,32c0,0.6-0.1,1.2-0.3,1.6l-3.2,6.9c-0.1,0.2-0.2,0.4-0.4,0.5c-0.2,0.1-0.4,0.2-0.6,0.2S31.2,41.1,31,41
		c-0.2-0.1-0.3-0.3-0.4-0.5l-3.3-6.9c-0.2-0.4-0.3-1-0.3-1.6c0-1.3,0.4-2.3,1.3-3.2c0.9-0.9,2-1.3,3.2-1.3c1.3,0,2.3,0.4,3.2,1.3
		C35.7,29.7,36.1,30.7,36.1,32z M33.2,33.6c0.4-0.4,0.7-1,0.7-1.6s-0.2-1.2-0.7-1.6s-1-0.7-1.6-0.7s-1.2,0.2-1.6,0.7
		c-0.4,0.4-0.7,1-0.7,1.6s0.2,1.2,0.7,1.6c0.4,0.4,1,0.7,1.6,0.7S32.7,34.1,33.2,33.6z"/>
</g>
<g id="guides" class="st6">
</g>
</svg>
