<?xml version="1.0" encoding="utf-8"?>
<!-- Generator: Adobe Illustrator 21.0.0, SVG Export Plug-In . SVG Version: 6.00 Build 0)  -->
<svg version="1.1" xmlns="http://www.w3.org/2000/svg" xmlns:xlink="http://www.w3.org/1999/xlink" x="0px" y="0px" width="64px"
	 height="64px" viewBox="0 0 64 64" style="enable-background:new 0 0 64 64;" xml:space="preserve">
<style type="text/css">
	.st0{fill:#CCCCCC;}
	.st1{fill:#FFFFFF;}
	.st2{fill:#E6E6E6;}
	.st3{fill:#808080;}
	.st4{fill:none;stroke:#CCCCCC;stroke-miterlimit:10;}
	.st5{fill:#B3B3B3;}
	.st6{display:none;}
</style>
<g id="icon_frame">
	<path class="st0" d="M61,64H3c-1.6,0-3-1.3-3-3V3c0-1.6,1.4-3,3-3h58c1.7,0,3,1.4,3,3v58C64,62.7,62.7,64,61,64z"/>
	<path class="st1" d="M58,60H6c-1.1,0-2-0.9-2-2V12c0-1.1,0.9-2,2-2h52c1.1,0,2,0.9,2,2v46C60,59.1,59.1,60,58,60z"/>
	<circle class="st1" cx="7" cy="4.9" r="2"/>
	<circle class="st1" cx="13.7" cy="4.9" r="2"/>
	<circle class="st1" cx="20.3" cy="4.9" r="2"/>
</g>
<g id="ref">
	<path class="st2" d="M47.7,52H16.3C14,52,12,50,12,47.7V22.3c0-2.4,2-4.3,4.3-4.3h31.3c2.4,0,4.3,2,4.3,4.3v25.3
		C52,50,50,52,47.7,52z"/>
	<path class="st3" d="M41.4,27.9v12.2c0,0.5-0.2,1-0.6,1.4S40,42,39.5,42H22.8c-0.5,0-1-0.2-1.4-0.6s-0.6-0.8-0.6-1.4V29.1h2.6v-1.3
		H41.4z M23.4,40.1v-9.6h-1.3v9.6c0,0.2,0.1,0.3,0.2,0.5c0.1,0.1,0.3,0.2,0.5,0.2c0.2,0,0.3-0.1,0.5-0.2
		C23.4,40.4,23.4,40.2,23.4,40.1z M40.1,40.1V29.1H24.7v10.9c0,0.2,0,0.4-0.1,0.6h14.9c0.2,0,0.3-0.1,0.5-0.2
		C40.1,40.4,40.1,40.2,40.1,40.1z M32.4,30.4v6.4H26v-6.4H32.4z M32.4,38.1v1.3H26v-1.3H32.4z M31.1,31.7h-3.9v3.9h3.9V31.7z
		 M38.9,30.4v1.3h-5.1v-1.3H38.9z M38.9,33v1.3h-5.1V33H38.9z M38.9,35.6v1.3h-5.1v-1.3H38.9z M38.9,38.1v1.3h-5.1v-1.3H38.9z"/>
</g>
<g id="guides" class="st6">
</g>
</svg>
