<?xml version="1.0" encoding="utf-8"?>
<!-- Generator: Adobe Illustrator 21.0.0, SVG Export Plug-In . SVG Version: 6.00 Build 0)  -->
<svg version="1.1" xmlns="http://www.w3.org/2000/svg" xmlns:xlink="http://www.w3.org/1999/xlink" x="0px" y="0px" width="64px"
	 height="64px" viewBox="0 0 64 64" style="enable-background:new 0 0 64 64;" xml:space="preserve">
<style type="text/css">
	.st0{fill:#CCCCCC;}
	.st1{fill:#FFFFFF;}
	.st2{fill:#E6E6E6;}
	.st3{fill:#808080;}
	.st4{fill:none;stroke:#CCCCCC;stroke-miterlimit:10;}
	.st5{fill:#B3B3B3;}
	.st6{display:none;}
</style>
<g id="icon_frame">
	<path class="st0" d="M61,64H3c-1.6,0-3-1.3-3-3V3c0-1.6,1.4-3,3-3h58c1.7,0,3,1.4,3,3v58C64,62.7,62.7,64,61,64z"/>
	<path class="st1" d="M58,60H6c-1.1,0-2-0.9-2-2V12c0-1.1,0.9-2,2-2h52c1.1,0,2,0.9,2,2v46C60,59.1,59.1,60,58,60z"/>
	<circle class="st1" cx="7" cy="4.9" r="2"/>
	<circle class="st1" cx="13.7" cy="4.9" r="2"/>
	<circle class="st1" cx="20.3" cy="4.9" r="2"/>
</g>
<g id="ref">
	<path class="st2" d="M47.7,52H16.3C14,52,12,50,12,47.7V22.3c0-2.4,2-4.3,4.3-4.3h31.3c2.4,0,4.3,2,4.3,4.3v25.3
		C52,50,50,52,47.7,52z"/>
	<path class="st3" d="M29.3,34.3c-1,0-1.8,0.4-2.4,1.1h-1.2c-0.5,0-0.9-0.1-1.2-0.4C24.2,34.8,24,34.5,24,34c0-2.1,0.4-3.2,1.1-3.2
		c0,0,0.2,0.1,0.4,0.2c0.2,0.1,0.5,0.3,0.9,0.4c0.4,0.1,0.7,0.2,1.1,0.2c0.4,0,0.8-0.1,1.2-0.2c0,0.2,0,0.4,0,0.6
		C28.6,32.8,28.8,33.6,29.3,34.3z M29,27c0.4,0.4,0.7,1,0.7,1.6s-0.2,1.2-0.7,1.6c-0.4,0.4-1,0.7-1.6,0.7c-0.6,0-1.2-0.2-1.6-0.7
		s-0.7-1-0.7-1.6s0.2-1.2,0.7-1.6s1-0.7,1.6-0.7C28.1,26.3,28.6,26.5,29,27z M38.9,40c0,0.7-0.2,1.3-0.7,1.7c-0.4,0.4-1,0.6-1.7,0.6
		h-7.8c-0.7,0-1.3-0.2-1.7-0.6s-0.7-1-0.7-1.7c0-0.3,0-0.6,0-0.9c0-0.3,0.1-0.6,0.1-1c0.1-0.3,0.1-0.7,0.2-1s0.2-0.6,0.4-0.9
		c0.2-0.3,0.3-0.5,0.6-0.7s0.5-0.4,0.8-0.5s0.6-0.2,1-0.2c0.1,0,0.2,0.1,0.4,0.2s0.4,0.3,0.7,0.4c0.2,0.2,0.6,0.3,1,0.4
		c0.4,0.1,0.8,0.2,1.2,0.2s0.8-0.1,1.2-0.2c0.4-0.1,0.7-0.3,1-0.4c0.2-0.2,0.5-0.3,0.7-0.4s0.3-0.2,0.4-0.2c0.4,0,0.7,0.1,1,0.2
		s0.6,0.3,0.8,0.5c0.2,0.2,0.4,0.4,0.6,0.7c0.2,0.3,0.3,0.6,0.4,0.9c0.1,0.3,0.2,0.6,0.2,1c0.1,0.3,0.1,0.7,0.1,1
		C38.8,39.3,38.9,39.7,38.9,40z M35,29.6c0.7,0.7,1,1.5,1,2.4s-0.3,1.8-1,2.4c-0.7,0.7-1.5,1-2.4,1s-1.8-0.3-2.4-1
		c-0.7-0.7-1-1.5-1-2.4s0.3-1.8,1-2.4c0.7-0.7,1.5-1,2.4-1S34.3,28.9,35,29.6z M39.3,27c0.4,0.4,0.7,1,0.7,1.6s-0.2,1.2-0.7,1.6
		c-0.4,0.4-1,0.7-1.6,0.7s-1.2-0.2-1.6-0.7c-0.4-0.4-0.7-1-0.7-1.6s0.2-1.2,0.7-1.6c0.4-0.4,1-0.7,1.6-0.7S38.9,26.5,39.3,27z
		 M41.1,34c0,0.5-0.2,0.8-0.5,1.1c-0.3,0.2-0.7,0.4-1.2,0.4h-1.2c-0.6-0.7-1.4-1.1-2.4-1.1c0.5-0.7,0.7-1.5,0.7-2.3
		c0-0.2,0-0.4,0-0.6c0.4,0.1,0.8,0.2,1.2,0.2c0.4,0,0.7-0.1,1.1-0.2c0.4-0.1,0.6-0.3,0.9-0.4s0.4-0.2,0.4-0.2
		C40.8,30.9,41.1,31.9,41.1,34z"/>
</g>
<g id="guides" class="st6">
</g>
</svg>
