<?xml version="1.0" encoding="utf-8"?>
<!-- Generator: Adobe Illustrator 21.0.0, SVG Export Plug-In . SVG Version: 6.00 Build 0)  -->
<svg version="1.1" xmlns="http://www.w3.org/2000/svg" xmlns:xlink="http://www.w3.org/1999/xlink" x="0px" y="0px" width="64px"
	 height="64px" viewBox="0 0 64 64" style="enable-background:new 0 0 64 64;" xml:space="preserve">
<style type="text/css">
	.st0{fill:#CCCCCC;}
	.st1{fill:#FFFFFF;}
	.st2{fill:#E6E6E6;}
	.st3{fill:#808080;}
	.st4{fill:none;stroke:#CCCCCC;stroke-miterlimit:10;}
	.st5{fill:#B3B3B3;}
	.st6{display:none;}
</style>
<g id="icon_frame">
	<path class="st0" d="M61,64H3c-1.6,0-3-1.3-3-3V3c0-1.6,1.4-3,3-3h58c1.7,0,3,1.4,3,3v58C64,62.7,62.7,64,61,64z"/>
	<path class="st1" d="M58,60H6c-1.1,0-2-0.9-2-2V12c0-1.1,0.9-2,2-2h52c1.1,0,2,0.9,2,2v46C60,59.1,59.1,60,58,60z"/>
	<circle class="st1" cx="7" cy="4.9" r="2"/>
	<circle class="st1" cx="13.7" cy="4.9" r="2"/>
	<circle class="st1" cx="20.3" cy="4.9" r="2"/>
</g>
<g id="ref">
	<path class="st3" d="M29,34H15c-1.1,0-2-0.9-2-2V20c0-1.1,0.9-2,2-2h14c1.1,0,2,0.9,2,2v12C31,33.1,30.1,34,29,34z"/>
	<circle class="st0" cx="27" cy="22" r="1"/>
	<polygon class="st0" points="20,24 15,31 25,31 	"/>
	<polygon class="st0" points="25,26 21,31 29,31 	"/>
	<path class="st3" d="M49,34H35c-1.1,0-2-0.9-2-2V20c0-1.1,0.9-2,2-2h14c1.1,0,2,0.9,2,2v12C51,33.1,50.1,34,49,34z"/>
	<circle class="st0" cx="47" cy="22" r="1"/>
	<polygon class="st0" points="40,24 35,31 45,31 	"/>
	<polygon class="st0" points="45,26 41,31 49,31 	"/>
	<path class="st3" d="M29,52H15c-1.1,0-2-0.9-2-2V38c0-1.1,0.9-2,2-2h14c1.1,0,2,0.9,2,2v12C31,51.1,30.1,52,29,52z"/>
	<circle class="st0" cx="27" cy="40" r="1"/>
	<polygon class="st0" points="20,42 15,49 25,49 	"/>
	<polygon class="st0" points="25,44 21,49 29,49 	"/>
	<path class="st3" d="M49,52H35c-1.1,0-2-0.9-2-2V38c0-1.1,0.9-2,2-2h14c1.1,0,2,0.9,2,2v12C51,51.1,50.1,52,49,52z"/>
	<circle class="st0" cx="47" cy="40" r="1"/>
	<polygon class="st0" points="40,42 35,49 45,49 	"/>
	<polygon class="st0" points="45,44 41,49 49,49 	"/>
</g>
<g id="guides" class="st6">
</g>
</svg>
