<?xml version="1.0" encoding="utf-8"?>
<!-- Generator: Adobe Illustrator 21.0.0, SVG Export Plug-In . SVG Version: 6.00 Build 0)  -->
<svg version="1.1" xmlns="http://www.w3.org/2000/svg" xmlns:xlink="http://www.w3.org/1999/xlink" x="0px" y="0px" width="64px"
	 height="64px" viewBox="0 0 64 64" style="enable-background:new 0 0 64 64;" xml:space="preserve">
<style type="text/css">
	.st0{fill:#CCCCCC;}
	.st1{fill:#FFFFFF;}
	.st2{fill:#E6E6E6;}
	.st3{fill:#808080;}
	.st4{fill:none;stroke:#CCCCCC;stroke-miterlimit:10;}
	.st5{fill:#B3B3B3;}
	.st6{display:none;}
</style>
<g id="icon_frame">
	<path class="st0" d="M61,64H3c-1.6,0-3-1.3-3-3V3c0-1.6,1.4-3,3-3h58c1.7,0,3,1.4,3,3v58C64,62.7,62.7,64,61,64z"/>
	<path class="st1" d="M58,60H6c-1.1,0-2-0.9-2-2V12c0-1.1,0.9-2,2-2h52c1.1,0,2,0.9,2,2v46C60,59.1,59.1,60,58,60z"/>
	<circle class="st1" cx="7" cy="4.9" r="2"/>
	<circle class="st1" cx="13.7" cy="4.9" r="2"/>
	<circle class="st1" cx="20.3" cy="4.9" r="2"/>
</g>
<g id="ref">
	<path class="st3" d="M28.9,34H15.1c-1.1,0-2.1-0.9-2.1-2.1V19.1c0-1.1,0.9-2.1,2.1-2.1h13.9c1.1,0,2.1,0.9,2.1,2.1v12.9
		C31,33.1,30.1,34,28.9,34z"/>
	<circle class="st0" cx="27" cy="20" r="1"/>
	<polygon class="st0" points="20,21 15,28 25,28 	"/>
	<polygon class="st0" points="25,23 21,28 29,28 	"/>
	<rect x="15" y="30" class="st1" width="12" height="2"/>
	<path class="st3" d="M48.9,34H35.1c-1.1,0-2.1-0.9-2.1-2.1V19.1c0-1.1,0.9-2.1,2.1-2.1h13.9c1.1,0,2.1,0.9,2.1,2.1v12.9
		C51,33.1,50.1,34,48.9,34z"/>
	<circle class="st0" cx="47" cy="20" r="1"/>
	<polygon class="st0" points="40,21 35,28 45,28 	"/>
	<polygon class="st0" points="45,23 41,28 49,28 	"/>
	<rect x="35" y="30" class="st1" width="12" height="2"/>
	<path class="st3" d="M28.9,53H15.1c-1.1,0-2.1-0.9-2.1-2.1V38.1c0-1.1,0.9-2.1,2.1-2.1h13.9c1.1,0,2.1,0.9,2.1,2.1v12.9
		C31,52.1,30.1,53,28.9,53z"/>
	<circle class="st0" cx="27" cy="39" r="1"/>
	<polygon class="st0" points="20,40 15,47 25,47 	"/>
	<polygon class="st0" points="25,42 21,47 29,47 	"/>
	<rect x="15" y="49" class="st1" width="12" height="2"/>
	<path class="st3" d="M48.9,53H35.1c-1.1,0-2.1-0.9-2.1-2.1V38.1c0-1.1,0.9-2.1,2.1-2.1h13.9c1.1,0,2.1,0.9,2.1,2.1v12.9
		C51,52.1,50.1,53,48.9,53z"/>
	<circle class="st0" cx="47" cy="39" r="1"/>
	<polygon class="st0" points="40,40 35,47 45,47 	"/>
	<polygon class="st0" points="45,42 41,47 49,47 	"/>
	<rect x="35" y="49" class="st1" width="12" height="2"/>
	<g>
		<circle class="st2" cx="52" cy="18" r="6"/>
		<g>
			<path class="st3" d="M55,17.3c0,0.1,0,0.1-0.1,0.2l-1.3,1.3l0.3,1.9c0,0,0,0,0,0.1c0,0.1,0,0.1,0,0.1c0,0-0.1,0.1-0.1,0.1
				c0,0-0.1,0-0.1,0L52,20.1L50.4,21c-0.1,0-0.1,0-0.1,0c-0.1,0-0.1,0-0.1-0.1c0,0,0-0.1,0-0.1c0,0,0,0,0-0.1l0.3-1.9l-1.3-1.3
				C49,17.4,49,17.4,49,17.3c0-0.1,0.1-0.2,0.2-0.2l1.8-0.3l0.8-1.7c0-0.1,0.1-0.2,0.2-0.2c0.1,0,0.1,0.1,0.2,0.2l0.8,1.7l1.8,0.3
				C54.9,17.2,55,17.2,55,17.3z"/>
		</g>
	</g>
</g>
<g id="guides" class="st6">
</g>
</svg>
