<?xml version="1.0" encoding="utf-8"?>
<!-- Generator: Adobe Illustrator 21.0.0, SVG Export Plug-In . SVG Version: 6.00 Build 0)  -->
<svg version="1.1" xmlns="http://www.w3.org/2000/svg" xmlns:xlink="http://www.w3.org/1999/xlink" x="0px" y="0px" width="64px"
	 height="64px" viewBox="0 0 64 64" style="enable-background:new 0 0 64 64;" xml:space="preserve">
<style type="text/css">
	.st0{fill:#CCCCCC;}
	.st1{fill:#FFFFFF;}
	.st2{fill:#E6E6E6;}
	.st3{fill:#808080;}
	.st4{fill:none;stroke:#CCCCCC;stroke-miterlimit:10;}
	.st5{fill:#B3B3B3;}
	.st6{display:none;}
</style>
<g id="icon_frame">
	<path class="st0" d="M61,64H3c-1.6,0-3-1.3-3-3V3c0-1.6,1.4-3,3-3h58c1.7,0,3,1.4,3,3v58C64,62.7,62.7,64,61,64z"/>
	<path class="st1" d="M58,60H6c-1.1,0-2-0.9-2-2V12c0-1.1,0.9-2,2-2h52c1.1,0,2,0.9,2,2v46C60,59.1,59.1,60,58,60z"/>
	<circle class="st1" cx="7" cy="4.9" r="2"/>
	<circle class="st1" cx="13.7" cy="4.9" r="2"/>
	<circle class="st1" cx="20.3" cy="4.9" r="2"/>
</g>
<g id="ref">
	<rect x="34" y="18" class="st3" width="18" height="2"/>
	<rect x="34" y="24" class="st3" width="18" height="2"/>
	<rect x="34" y="30" class="st3" width="18" height="2"/>
	<rect x="12" y="38" class="st3" width="18" height="2"/>
	<rect x="12" y="44" class="st3" width="18" height="2"/>
	<rect x="12" y="50" class="st3" width="18" height="2"/>
	<path class="st3" d="M28,33H14c-1.1,0-2-0.9-2-2V19c0-1.1,0.9-2,2-2h14c1.1,0,2,0.9,2,2v12C30,32.1,29.1,33,28,33z"/>
	<circle class="st0" cx="26" cy="21" r="1"/>
	<polygon class="st0" points="19,23 14,30 24,30 	"/>
	<polygon class="st0" points="24,25 20,30 28,30 	"/>
	<path class="st3" d="M50,53H36c-1.1,0-2-0.9-2-2V39c0-1.1,0.9-2,2-2h14c1.1,0,2,0.9,2,2v12C52,52.1,51.1,53,50,53z"/>
	<circle class="st0" cx="48" cy="41" r="1"/>
	<polygon class="st0" points="41,43 36,50 46,50 	"/>
	<polygon class="st0" points="46,45 42,50 50,50 	"/>
</g>
<g id="guides" class="st6">
</g>
</svg>
