<?xml version="1.0" encoding="utf-8"?>
<!-- Generator: Adobe Illustrator 21.0.0, SVG Export Plug-In . SVG Version: 6.00 Build 0)  -->
<svg version="1.1" xmlns="http://www.w3.org/2000/svg" xmlns:xlink="http://www.w3.org/1999/xlink" x="0px" y="0px" width="64px"
	 height="64px" viewBox="0 0 64 64" style="enable-background:new 0 0 64 64;" xml:space="preserve">
<style type="text/css">
	.st0{fill:#CCCCCC;}
	.st1{fill:#FFFFFF;}
	.st2{fill:#E6E6E6;}
	.st3{fill:#808080;}
	.st4{fill:none;stroke:#CCCCCC;stroke-miterlimit:10;}
	.st5{fill:#B3B3B3;}
	.st6{display:none;}
</style>
<g id="icon_frame">
	<path class="st0" d="M61,64H3c-1.6,0-3-1.3-3-3V3c0-1.6,1.4-3,3-3h58c1.7,0,3,1.4,3,3v58C64,62.7,62.7,64,61,64z"/>
	<path class="st1" d="M58,60H6c-1.1,0-2-0.9-2-2V12c0-1.1,0.9-2,2-2h52c1.1,0,2,0.9,2,2v46C60,59.1,59.1,60,58,60z"/>
	<circle class="st1" cx="7" cy="4.9" r="2"/>
	<circle class="st1" cx="13.7" cy="4.9" r="2"/>
	<circle class="st1" cx="20.3" cy="4.9" r="2"/>
</g>
<g id="ref">
	<path class="st2" d="M47.7,52H16.3C14,52,12,50,12,47.7V22.3c0-2.4,2-4.3,4.3-4.3h31.3c2.4,0,4.3,2,4.3,4.3v25.3
		C52,50,50,52,47.7,52z"/>
	<path class="st3" d="M38.1,29.7c0.2,0.2,0.3,0.4,0.4,0.7c0.1,0.3,0.2,0.5,0.2,0.8v10.3c0,0.2-0.1,0.4-0.2,0.6
		c-0.2,0.2-0.4,0.2-0.6,0.2h-12c-0.2,0-0.4-0.1-0.6-0.2c-0.2-0.2-0.2-0.4-0.2-0.6V27.1c0-0.2,0.1-0.4,0.2-0.6
		c0.2-0.2,0.4-0.2,0.6-0.2h8c0.2,0,0.5,0.1,0.8,0.2c0.3,0.1,0.5,0.3,0.7,0.4L38.1,29.7z M37.6,41.1V32h-3.7c-0.2,0-0.4-0.1-0.6-0.2
		S33,31.4,33,31.1v-3.7h-6.9v13.7H37.6z M33,35.8c0.2,0.2,0.4,0.3,0.8,0.5c0.4,0,0.7-0.1,1-0.1c0.9,0,1.4,0.1,1.6,0.4
		c0.1,0.1,0.1,0.3,0,0.5c0,0,0,0,0,0c0,0,0,0,0,0v0c0,0.2-0.2,0.3-0.6,0.3c-0.3,0-0.6-0.1-1-0.2s-0.8-0.3-1.2-0.5
		c-1.3,0.1-2.5,0.4-3.5,0.7c-0.9,1.6-1.6,2.3-2.2,2.3c-0.1,0-0.2,0-0.2-0.1l-0.2-0.1c0,0,0,0-0.1,0c-0.1-0.1-0.1-0.2-0.1-0.3
		c0.1-0.2,0.2-0.5,0.5-0.8s0.7-0.6,1.2-0.9c0.1-0.1,0.2,0,0.2,0.1c0,0,0,0,0,0c0.3-0.5,0.6-1.1,1-1.8c0.4-0.8,0.7-1.6,0.9-2.3
		c-0.1-0.5-0.2-1-0.3-1.4c0-0.5,0-0.8,0.1-1.1c0.1-0.2,0.2-0.4,0.4-0.4h0.2h0c0.1,0,0.2,0,0.3,0.1c0.1,0.1,0.1,0.3,0.1,0.6
		c0,0,0,0.1,0,0.1c0,0,0,0,0,0.1V32c0,0.7-0.1,1.3-0.1,1.7C32,34.7,32.4,35.4,33,35.8z M27.8,39.5c0.3-0.1,0.7-0.6,1.2-1.4
		c-0.3,0.2-0.6,0.5-0.8,0.8S27.9,39.3,27.8,39.5z M30.3,37.2c0.8-0.3,1.6-0.6,2.5-0.7c0,0-0.1,0-0.1-0.1c-0.1-0.1-0.1-0.1-0.1-0.1
		c-0.5-0.4-0.8-0.9-1.1-1.6c-0.2,0.5-0.4,1.1-0.7,1.8C30.5,36.8,30.4,37,30.3,37.2z M31.4,31.3c-0.1,0.2-0.1,0.6,0,1.2
		c0,0,0-0.2,0.1-0.4c0,0,0-0.1,0.1-0.4c0,0,0,0,0-0.1c0,0,0,0,0,0s0,0,0,0c0,0,0,0,0,0C31.5,31.5,31.5,31.4,31.4,31.3
		C31.4,31.3,31.4,31.3,31.4,31.3L31.4,31.3z M34.1,27.5v3.4h3.4c-0.1-0.2-0.1-0.3-0.2-0.4l-2.8-2.8C34.4,27.6,34.3,27.6,34.1,27.5z
		 M36.1,37.1c-0.1-0.1-0.6-0.2-1.2-0.2c0.5,0.2,0.8,0.2,1.1,0.2C36,37.1,36,37.1,36.1,37.1C36.1,37.1,36.1,37.1,36.1,37.1z"/>
</g>
<g id="guides" class="st6">
</g>
</svg>
