<?xml version="1.0" encoding="utf-8"?>
<!-- Generator: Adobe Illustrator 21.0.0, SVG Export Plug-In . SVG Version: 6.00 Build 0)  -->
<svg version="1.1" xmlns="http://www.w3.org/2000/svg" xmlns:xlink="http://www.w3.org/1999/xlink" x="0px" y="0px" width="64px"
	 height="64px" viewBox="0 0 64 64" style="enable-background:new 0 0 64 64;" xml:space="preserve">
<style type="text/css">
	.st0{fill:#CCCCCC;}
	.st1{fill:#FFFFFF;}
	.st2{fill:#E6E6E6;}
	.st3{fill:#808080;}
	.st4{fill:none;stroke:#CCCCCC;stroke-miterlimit:10;}
	.st5{fill:#B3B3B3;}
	.st6{display:none;}
</style>
<g id="icon_frame">
	<path class="st0" d="M61,64H3c-1.6,0-3-1.3-3-3V3c0-1.6,1.4-3,3-3h58c1.7,0,3,1.4,3,3v58C64,62.7,62.7,64,61,64z"/>
	<path class="st1" d="M58,60H6c-1.1,0-2-0.9-2-2V12c0-1.1,0.9-2,2-2h52c1.1,0,2,0.9,2,2v46C60,59.1,59.1,60,58,60z"/>
	<circle class="st1" cx="7" cy="4.9" r="2"/>
	<circle class="st1" cx="13.7" cy="4.9" r="2"/>
	<circle class="st1" cx="20.3" cy="4.9" r="2"/>
</g>
<g id="ref">
	<path class="st2" d="M47.7,52H16.3C14,52,12,50,12,47.7V22.3c0-2.4,2-4.3,4.3-4.3h31.3c2.4,0,4.3,2,4.3,4.3v25.3
		C52,50,50,52,47.7,52z"/>
	<path class="st3" d="M38.9,36.3v2.9c0,0.2-0.1,0.4-0.2,0.6C38.4,39.9,38.2,40,38,40H24.9c-0.2,0-0.4-0.1-0.6-0.2S24,39.4,24,39.1
		v-2.9c0-0.2,0.1-0.4,0.2-0.6s0.4-0.2,0.6-0.2H29l1.2,1.2c0.3,0.3,0.8,0.5,1.2,0.5s0.9-0.2,1.2-0.5l1.2-1.2H38
		c0.2,0,0.4,0.1,0.6,0.2C38.8,35.8,38.9,36,38.9,36.3z M36,31.2c0.1,0.2,0.1,0.5-0.1,0.6l-4,4c-0.1,0.1-0.2,0.2-0.4,0.2
		s-0.3-0.1-0.4-0.2l-4-4c-0.2-0.2-0.2-0.4-0.1-0.6c0.1-0.2,0.3-0.3,0.5-0.3h2.3v-4c0-0.2,0.1-0.3,0.2-0.4c0.1-0.1,0.2-0.2,0.4-0.2
		h2.3c0.2,0,0.3,0.1,0.4,0.2c0.1,0.1,0.2,0.2,0.2,0.4v4h2.3C35.7,30.9,35.9,31,36,31.2z M35.3,38.7c0.1-0.1,0.2-0.2,0.2-0.4
		c0-0.2-0.1-0.3-0.2-0.4c-0.1-0.1-0.2-0.2-0.4-0.2s-0.3,0.1-0.4,0.2c-0.1,0.1-0.2,0.2-0.2,0.4c0,0.2,0.1,0.3,0.2,0.4
		c0.1,0.1,0.2,0.2,0.4,0.2S35.1,38.8,35.3,38.7z M37.5,38.7c0.1-0.1,0.2-0.2,0.2-0.4c0-0.2-0.1-0.3-0.2-0.4
		c-0.1-0.1-0.2-0.2-0.4-0.2c-0.2,0-0.3,0.1-0.4,0.2c-0.1,0.1-0.2,0.2-0.2,0.4c0,0.2,0.1,0.3,0.2,0.4c0.1,0.1,0.2,0.2,0.4,0.2
		C37.3,38.9,37.4,38.8,37.5,38.7z"/>
</g>
<g id="guides" class="st6">
</g>
</svg>
