<?xml version="1.0" encoding="utf-8"?>
<!-- Generator: Adobe Illustrator 21.0.0, SVG Export Plug-In . SVG Version: 6.00 Build 0)  -->
<svg version="1.1" xmlns="http://www.w3.org/2000/svg" xmlns:xlink="http://www.w3.org/1999/xlink" x="0px" y="0px" width="64px"
	 height="64px" viewBox="0 0 64 64" style="enable-background:new 0 0 64 64;" xml:space="preserve">
<style type="text/css">
	.st0{fill:#CCCCCC;}
	.st1{fill:#FFFFFF;}
	.st2{fill:#E6E6E6;}
	.st3{fill:#808080;}
	.st4{fill:none;stroke:#CCCCCC;stroke-miterlimit:10;}
	.st5{fill:#B3B3B3;}
	.st6{display:none;}
</style>
<g id="icon_frame">
	<path class="st0" d="M61,64H3c-1.6,0-3-1.3-3-3V3c0-1.6,1.4-3,3-3h58c1.7,0,3,1.4,3,3v58C64,62.7,62.7,64,61,64z"/>
	<path class="st1" d="M58,60H6c-1.1,0-2-0.9-2-2V12c0-1.1,0.9-2,2-2h52c1.1,0,2,0.9,2,2v46C60,59.1,59.1,60,58,60z"/>
	<circle class="st1" cx="7" cy="4.9" r="2"/>
	<circle class="st1" cx="13.7" cy="4.9" r="2"/>
	<circle class="st1" cx="20.3" cy="4.9" r="2"/>
</g>
<g id="ref">
	<path class="st3" d="M24.1,32.3h-1.7v-1h1.7v-1.7h1v1.7h1.7v1H25V34h-1V32.3z"/>
	<path class="st3" d="M34.3,27.2c0,0.6-0.2,1.2-0.6,1.6s-0.9,0.7-1.6,0.9v0c0.8,0.1,1.4,0.3,1.8,0.7c0.4,0.4,0.6,0.9,0.6,1.6
		c0,1-0.3,1.7-1,2.2c-0.7,0.5-1.7,0.8-3,0.8c-1.1,0-2-0.2-2.9-0.5v-1.8c0.4,0.2,0.8,0.4,1.3,0.5s0.9,0.2,1.4,0.2
		c0.7,0,1.2-0.1,1.5-0.4s0.5-0.6,0.5-1.1c0-0.5-0.2-0.8-0.6-1s-1-0.3-1.8-0.3h-0.8v-1.6H30c0.8,0,1.3-0.1,1.7-0.3
		c0.4-0.2,0.5-0.5,0.5-1c0-0.8-0.5-1.1-1.4-1.1c-0.3,0-0.7,0.1-1,0.2s-0.7,0.3-1.1,0.6l-1-1.5c0.9-0.7,2-1,3.3-1
		c1,0,1.9,0.2,2.5,0.6S34.3,26.5,34.3,27.2z"/>
	<path class="st3" d="M41.1,35h-1.5l-1.7-2.7l-0.6,0.4V35h-1.4v-6.4h1.4v2.9l0.5-0.8l1.7-2.2h1.5l-2.2,2.8L41.1,35z"/>
	<rect x="26" y="41" class="st3" width="12" height="2"/>
	<rect x="40" y="41" class="st3" width="12" height="2"/>
	<rect x="12" y="41" class="st3" width="12" height="2"/>
</g>
<g id="guides" class="st6">
</g>
</svg>
