<?xml version="1.0" encoding="utf-8"?>
<!-- Generator: Adobe Illustrator 21.0.0, SVG Export Plug-In . SVG Version: 6.00 Build 0)  -->
<svg version="1.1" xmlns="http://www.w3.org/2000/svg" xmlns:xlink="http://www.w3.org/1999/xlink" x="0px" y="0px" width="64px"
	 height="64px" viewBox="0 0 64 64" style="enable-background:new 0 0 64 64;" xml:space="preserve">
<style type="text/css">
	.st0{fill:#CCCCCC;}
	.st1{fill:#FFFFFF;}
	.st2{fill:#E6E6E6;}
	.st3{fill:#808080;}
	.st4{fill:none;stroke:#CCCCCC;stroke-miterlimit:10;}
	.st5{fill:#B3B3B3;}
	.st6{display:none;}
</style>
<g id="icon_frame">
	<path class="st0" d="M61,64H3c-1.6,0-3-1.3-3-3V3c0-1.6,1.4-3,3-3h58c1.7,0,3,1.4,3,3v58C64,62.7,62.7,64,61,64z"/>
	<path class="st1" d="M58,60H6c-1.1,0-2-0.9-2-2V12c0-1.1,0.9-2,2-2h52c1.1,0,2,0.9,2,2v46C60,59.1,59.1,60,58,60z"/>
	<circle class="st1" cx="7" cy="4.9" r="2"/>
	<circle class="st1" cx="13.7" cy="4.9" r="2"/>
	<circle class="st1" cx="20.3" cy="4.9" r="2"/>
</g>
<g id="ref">
	<rect x="34" y="20" class="st3" width="18" height="2"/>
	<rect x="34" y="26" class="st3" width="18" height="2"/>
	<rect x="34" y="32" class="st3" width="18" height="2"/>
	<rect x="34" y="38" class="st3" width="18" height="2"/>
	<rect x="34" y="44" class="st3" width="18" height="2"/>
	<rect x="34" y="50" class="st3" width="18" height="2"/>
	<rect x="12" y="32" class="st3" width="18" height="2"/>
	<rect x="12" y="38" class="st3" width="18" height="2"/>
	<rect x="12" y="44" class="st3" width="18" height="2"/>
	<rect x="12" y="50" class="st3" width="18" height="2"/>
	<g>
		<path class="st3" d="M19.5,28l-1-2.8h-3.8l-1,2.8H12l3.7-10h1.8l3.7,10H19.5z M18.1,23.8l-0.9-2.7c-0.1-0.2-0.2-0.5-0.3-0.9
			s-0.2-0.7-0.2-0.9c-0.1,0.6-0.3,1.2-0.5,1.8l-0.9,2.6H18.1z"/>
		<path class="st3" d="M27.1,28l-0.3-1.1h-0.1c-0.4,0.5-0.7,0.8-1.1,0.9s-0.8,0.2-1.4,0.2c-0.7,0-1.3-0.2-1.7-0.6s-0.6-1-0.6-1.7
			c0-0.8,0.3-1.4,0.9-1.8s1.5-0.6,2.6-0.6l1.3,0V23c0-0.5-0.1-0.8-0.3-1.1s-0.6-0.4-1-0.4c-0.4,0-0.8,0.1-1.1,0.2s-0.7,0.2-1,0.4
			L22.6,21c0.4-0.2,0.9-0.4,1.3-0.5s0.9-0.2,1.4-0.2c1,0,1.7,0.2,2.2,0.6s0.7,1.1,0.7,2V28H27.1z M24.7,26.9c0.6,0,1.1-0.2,1.4-0.5
			s0.5-0.8,0.5-1.4v-0.7l-1,0c-0.8,0-1.3,0.2-1.7,0.4s-0.5,0.6-0.5,1c0,0.3,0.1,0.6,0.3,0.8S24.3,26.9,24.7,26.9z"/>
	</g>
</g>
<g id="guides" class="st6">
</g>
</svg>
