<?xml version="1.0" encoding="utf-8"?>
<!-- Generator: Adobe Illustrator 21.0.0, SVG Export Plug-In . SVG Version: 6.00 Build 0)  -->
<svg version="1.1" xmlns="http://www.w3.org/2000/svg" xmlns:xlink="http://www.w3.org/1999/xlink" x="0px" y="0px" width="64px"
	 height="64px" viewBox="0 0 64 64" style="enable-background:new 0 0 64 64;" xml:space="preserve">
<style type="text/css">
	.st0{fill:#CCCCCC;}
	.st1{fill:#FFFFFF;}
	.st2{fill:#E6E6E6;}
	.st3{fill:#808080;}
	.st4{fill:none;stroke:#CCCCCC;stroke-miterlimit:10;}
	.st5{fill:#B3B3B3;}
	.st6{display:none;}
</style>
<g id="icon_frame">
	<path class="st0" d="M61,64H3c-1.6,0-3-1.3-3-3V3c0-1.6,1.4-3,3-3h58c1.7,0,3,1.4,3,3v58C64,62.7,62.7,64,61,64z"/>
	<path class="st1" d="M58,60H6c-1.1,0-2-0.9-2-2V12c0-1.1,0.9-2,2-2h52c1.1,0,2,0.9,2,2v46C60,59.1,59.1,60,58,60z"/>
	<circle class="st1" cx="7" cy="4.9" r="2"/>
	<circle class="st1" cx="13.7" cy="4.9" r="2"/>
	<circle class="st1" cx="20.3" cy="4.9" r="2"/>
</g>
<g id="ref">
	<path class="st3" d="M57.2,60H6.8C5.3,60,4,58.7,4,57.2V12.8C4,11.3,5.3,10,6.8,10h50.4c1.5,0,2.8,1.3,2.8,2.8v44.4
		C60,58.7,58.7,60,57.2,60z"/>
	<path class="st0" d="M39.8,33.9c0,0.3,0,0.8,0,1.3c0,0.6,0,1,0,1.3c0,0.3,0,0.7-0.1,1.2c0,0.5-0.1,0.9-0.2,1.3
		c-0.1,0.4-0.3,0.8-0.6,1.1s-0.7,0.5-1.1,0.5c-1.3,0.1-3.3,0.2-6,0.2c-2.7,0-4.7-0.1-6-0.2c-0.4,0-0.8-0.2-1.1-0.5
		c-0.3-0.3-0.5-0.7-0.6-1.1c-0.1-0.4-0.1-0.8-0.2-1.3c0-0.5-0.1-0.9-0.1-1.2s0-0.8,0-1.3c0-0.6,0-1,0-1.3s0-0.7,0.1-1.2
		c0-0.5,0.1-0.9,0.2-1.3c0.1-0.4,0.3-0.8,0.6-1.1s0.7-0.5,1.1-0.5c1.3-0.1,3.3-0.2,6-0.2c2.7,0,4.7,0.1,6,0.2c0.4,0,0.8,0.2,1.1,0.5
		s0.5,0.7,0.6,1.1c0.1,0.4,0.1,0.8,0.2,1.3C39.8,33.2,39.8,33.6,39.8,33.9z M35.3,35.3c0-0.2-0.1-0.4-0.3-0.5l-4.6-2.9
		c-0.2-0.1-0.4-0.1-0.6,0c-0.2,0.1-0.3,0.3-0.3,0.5v5.7c0,0.2,0.1,0.4,0.3,0.5c0.1,0,0.2,0.1,0.3,0.1c0.1,0,0.2,0,0.3-0.1l4.6-2.9
		C35.2,35.7,35.3,35.5,35.3,35.3z"/>
</g>
<g id="guides" class="st6">
</g>
</svg>
